<svg width="249" height="78" viewBox="0 0 249 78" fill="none" xmlns="http://www.w3.org/2000/svg">
<path d="M89.1971 33.7902V33.734C89.1971 31.5238 88.5313 29.6035 87.202 27.974C85.8719 26.3443 84.2518 25.4548 82.3413 25.3045H81.8914H81.7512H81.6668H81.5543H81.3295C81.2541 25.3423 81.1979 25.3606 81.161 25.3606C79.8125 25.4731 78.6508 25.979 77.6768 26.878C75.6162 28.5639 74.586 30.8679 74.586 33.7902V33.8463C74.586 34.0342 74.6044 34.2588 74.6422 34.5206V34.8579C74.6793 34.9333 74.6986 35.008 74.6986 35.0825C74.8111 35.8693 74.9979 36.5999 75.2605 37.2742C76.1596 39.7101 77.7137 41.2642 79.9246 41.9387C80.4112 42.1264 80.9364 42.2197 81.4984 42.2197C81.5351 42.2197 81.5543 42.2389 81.5543 42.2756H81.6105H81.7512H81.8914H82.004H82.1163C82.2657 42.2756 82.4341 42.2573 82.6223 42.2197H82.6782C83.6144 42.1072 84.5135 41.7893 85.3759 41.2642V41.2079C85.6005 41.0956 85.769 40.9833 85.8815 40.8707C85.9938 40.7962 86.1247 40.6837 86.2748 40.5336C86.3117 40.5336 86.3399 40.5153 86.3591 40.4775C86.3777 40.4405 86.4056 40.4213 86.4434 40.4213C88.2785 38.7352 89.1971 36.5252 89.1971 33.7902ZM81.5543 18.7297C85.4502 18.7297 88.7843 20.2004 91.5572 23.141C94.3291 26.0825 95.7159 29.6229 95.7159 33.762C95.7159 37.9021 94.3291 41.4423 91.5572 44.3832C88.7843 47.3245 85.4502 48.7945 81.5543 48.7945C79.0817 48.7945 76.7582 48.1578 74.586 46.8838V58.46H68.1238V19.6288H74.586V20.6965C76.7582 19.3856 79.0817 18.7297 81.5543 18.7297Z" fill="white"/>
<path d="M99.1997 18.6734H114.316V25.2482H105.662V48.7943H99.1997V18.6734Z" fill="white"/>
<path d="M124.01 39.7189C125.49 41.3864 127.278 42.2195 129.376 42.2195C131.474 42.2195 133.263 41.3864 134.743 39.7189C136.223 38.0522 136.963 36.0572 136.963 33.7338C136.963 31.4113 136.223 29.4167 134.743 27.7489C133.263 26.0825 131.474 25.2481 129.376 25.2481C127.278 25.2481 125.49 26.0825 124.01 27.7489C122.53 29.4167 121.79 31.4113 121.79 33.7338C121.79 36.0572 122.53 38.0522 124.01 39.7189ZM119.374 23.1128C122.146 20.1907 125.48 18.7297 129.376 18.7297C133.273 18.7297 136.606 20.1907 139.38 23.1128C142.151 26.0351 143.538 29.5755 143.538 33.7338C143.538 37.8923 142.151 41.4327 139.38 44.355C136.606 47.2771 133.273 48.7381 129.376 48.7381C125.48 48.7381 122.146 47.2771 119.374 44.355C116.601 41.4327 115.215 37.8923 115.215 33.7338C115.215 29.5755 116.601 26.0351 119.374 23.1128Z" fill="white"/>
<path d="M153.428 48.7943H146.966V9.45707H153.428V48.7943Z" fill="white"/>
<path d="M179.278 18.6734H186.584L173.658 58.4601H166.353L172.366 39.9717H165.116L155.732 18.6734H163.037L172.366 39.9717L179.278 18.6734Z" fill="white"/>
<path d="M191.136 23.1128C193.908 20.1908 197.242 18.7297 201.138 18.7297C205.035 18.7297 208.368 20.1908 211.142 23.1128C213.913 26.0351 215.3 29.5753 215.3 33.7338V48.7381H208.725V33.7338C208.725 31.4113 207.985 29.4167 206.505 27.749C205.025 26.0826 203.236 25.2481 201.138 25.2481C199.04 25.2481 197.251 26.0826 195.772 27.749C194.292 29.4167 193.552 31.4113 193.552 33.7338V48.7945H186.977V33.7338C186.977 29.5753 188.363 26.0351 191.136 23.1128Z" fill="white"/>
<path d="M248.343 18.6734L234.799 31.5986L246.544 48.7943H238.564L230.023 36.1501L225.864 40.0276V48.7943H219.402V9.4573H225.864V31.9355L240.138 18.6172L248.343 18.6734Z" fill="white"/>
<path d="M42.9598 15.2672V8.10699L13.0675 24.6614V54.5539L19.6011 50.9354V43.7262V28.2523L35.0806 19.6799L42.9598 15.2672Z" fill="white"/>
<path d="M29.8923 8.12409V0.964093L0 17.5182V47.4108L6.53361 43.7923V36.5831V21.1092L22.0131 12.5367L29.8923 8.12409Z" fill="white"/>
<path d="M26.1349 31.8431V61.7354L32.6688 58.1171V50.9079V41.1162V35.4338L49.4936 26.1164V41.5903L39.2024 47.2894V54.4987L56.0272 45.1812V15.2887L26.1349 31.8431Z" fill="white"/>
<mask id="mask0_1242_176" style="mask-type:luminance" maskUnits="userSpaceOnUse" x="145" y="69" width="7" height="9">
<path d="M145.647 69.2886V73.9194C145.647 76.4025 147.437 77.0289 147.437 77.0289H147.996C150.054 77.0289 151.732 75.3735 151.732 73.3154V69.2886H145.647Z" fill="white"/>
</mask>
<g mask="url(#mask0_1242_176)">
<path d="M-90.5882 160.136V-81.4681H338.931V160.136H-90.5882Z" fill="url(#paint0_linear_1242_176)"/>
</g>
<path d="M140.85 68.1556C140.79 68.1556 140.732 68.1509 140.673 68.1464V70.007C140.673 70.6473 140.14 71.1618 139.499 71.1229C138.907 71.0871 138.461 70.567 138.461 69.9748V65.5767V64.2235C138.461 63.7269 138.864 63.3244 139.36 63.3244H140.758C142.12 63.3244 143.263 64.4219 143.239 65.7836C143.216 67.0955 142.153 68.1556 140.85 68.1556ZM145.648 73.9183V60.8916H135.475V73.3081C135.475 75.3668 137.144 77.0359 139.203 77.0359H147.422C147.422 77.0359 145.648 76.4017 145.648 73.9183Z" fill="white"/>
<path d="M208.908 69.0141C208.908 67.6215 207.776 66.4925 206.38 66.4925C204.984 66.4925 203.852 67.6215 203.852 69.0141C203.852 70.4067 204.984 71.5358 206.38 71.5358C207.776 71.5358 208.908 70.4067 208.908 69.0141ZM210.32 69.0108C210.32 71.1839 208.554 72.9453 206.376 72.9453C204.197 72.9453 202.432 71.1839 202.432 69.0108C202.432 66.8379 204.197 65.0762 206.376 65.0762C208.554 65.0762 210.32 66.8379 210.32 69.0108Z" fill="white"/>
<path d="M158.728 66.3693V69.1646L158.791 69.2277H159.76C160.721 69.2277 161.346 68.0436 160.969 67.1809C160.837 66.8792 160.306 66.3693 159.971 66.3693H158.728ZM158.728 70.3205V72.7582H157.295V65.2765H160.308C161.378 65.2765 162.436 66.5024 162.519 67.5259C162.625 68.8176 161.595 70.3205 160.223 70.3205H158.728Z" fill="white"/>
<path d="M182.156 69.5218C181.678 68.0055 179.639 67.9896 179.165 69.5218H182.156ZM183.505 70.6146H179.165C179.533 71.8749 181.127 72.0955 182.051 71.2888L182.915 72.1691C181.545 73.1483 179.544 73.234 178.407 71.8532C177.283 70.4882 177.7 68.4028 179.248 67.5666C181.4 66.4039 183.988 68.1967 183.505 70.6146Z" fill="white"/>
<path d="M233.059 69.5218C232.599 67.9956 230.546 67.9988 230.068 69.5218H233.059ZM230.11 70.6146C230.359 71.6875 231.518 71.9774 232.469 71.6016C232.586 71.5555 232.938 71.3208 232.988 71.3336L233.818 72.1691C232.421 73.2074 230.237 73.2141 229.191 71.6785C227.57 69.2996 230.013 66.3769 232.691 67.4301C233.803 67.867 234.49 68.9014 234.476 70.0963C234.475 70.243 234.468 70.5079 234.387 70.6146H230.11Z" fill="white"/>
<path d="M170.222 68.3988C168.235 68.608 168.414 71.892 170.547 71.7068C172.534 71.5341 172.291 68.1809 170.222 68.3988ZM173.264 70.0581C173.264 71.6444 171.975 72.9302 170.384 72.9302C168.794 72.9302 167.505 71.6444 167.505 70.0581C167.505 68.472 168.794 67.1861 170.384 67.1861C171.975 67.1861 173.264 68.472 173.264 70.0581Z" fill="white"/>
<path d="M195.588 68.398C193.578 68.6595 193.854 71.9522 195.994 71.703C197.942 71.4762 197.642 68.1306 195.588 68.398ZM198.656 70.0579C198.656 71.6442 197.367 72.9303 195.777 72.9303C194.187 72.9303 192.897 71.6442 192.897 70.0579C192.897 68.4716 194.187 67.1857 195.777 67.1857C197.367 67.1857 198.656 68.4716 198.656 70.0579Z" fill="white"/>
<path d="M227.834 72.7583H226.486V69.2906C226.486 69.2338 226.353 68.902 226.31 68.8351C225.862 68.1249 224.762 68.273 224.253 68.8282V72.7583H222.904V67.3361H224.253L224.253 67.7144C225.384 66.8544 227.175 67.0797 227.677 68.5226C227.728 68.6689 227.834 69.0275 227.834 69.1644V72.7583Z" fill="white"/>
<path d="M216.246 72.7583H214.94V69.5007C214.94 69.3989 214.849 69.0727 214.804 68.9638C214.448 68.1085 213.22 68.2517 212.664 68.8282V72.7583H211.316V67.3361H212.664L212.686 67.7148C213.75 66.8837 215.497 67.0674 216.056 68.3877C216.11 68.5155 216.246 68.921 216.246 69.0385V72.7583Z" fill="white"/>
<path d="M185.105 71.1613C185.306 71.5266 185.808 71.7732 186.221 71.7931C186.903 71.826 187.449 71.3202 186.708 70.8873C186.227 70.6063 185.627 70.549 185.136 70.2701C183.693 69.4522 184.039 67.7621 185.569 67.3147C186.53 67.0339 187.66 67.3071 188.293 68.0916L188.29 68.1755L187.567 68.9316C187.126 68.5281 186.665 68.1833 186.031 68.3641C185.741 68.4468 185.457 68.675 185.602 69.007C185.731 69.3045 187.03 69.6249 187.395 69.8233C189.066 70.7302 188.491 72.5734 186.723 72.8794C185.861 73.0286 184.737 72.7326 184.268 71.9447C184.277 71.8919 184.971 71.2087 185.021 71.181C185.051 71.1642 185.065 71.1524 185.105 71.1613Z" fill="white"/>
<path d="M190.879 65.7388V67.3361H192.227V68.5551H190.879V71.2662C190.879 71.3156 190.996 71.5163 191.045 71.5624C191.367 71.8631 191.926 71.6461 192.27 71.4973V72.6111C191.617 73.0543 190.244 73.0243 189.808 72.2924C189.707 72.1237 189.53 71.6165 189.53 71.4342V68.5551H188.814V67.9245C189.761 67.6055 190.275 66.6909 190.455 65.757L190.879 65.7388Z" fill="white"/>
<path d="M175.751 65.7388V67.3361H177.142V68.5551H175.751V71.1821C175.751 71.2311 175.84 71.4221 175.878 71.4767C176.142 71.8628 176.795 71.6966 177.142 71.4973V72.6742C176.386 73.0002 175.151 73.0617 174.679 72.2514C174.478 71.9053 174.425 71.3675 174.403 70.9716C174.36 70.179 174.435 69.351 174.403 68.5551H173.729V67.9245C174.647 67.5911 175.197 66.6806 175.332 65.7408L175.751 65.7388Z" fill="white"/>
<path d="M218.69 64.9823C218.659 65.0454 218.648 65.0973 218.646 65.1691C218.6 66.9798 218.553 69.0942 218.646 70.8899C218.657 71.1047 218.667 71.5054 218.815 71.6463C219.055 71.8745 219.305 71.7754 219.575 71.6655V72.7584C218.817 73.014 217.768 72.9485 217.418 72.1152C217.399 72.0707 217.3 71.7488 217.3 71.7286V64.9823H218.69Z" fill="white"/>
<path d="M164.606 67.3361C164.695 67.3578 164.59 67.777 164.627 67.8824C164.71 67.9038 164.709 67.8481 164.746 67.8117C164.84 67.7191 164.914 67.596 165.028 67.5052C165.777 66.9086 166.611 67.2893 167.187 67.9029L166.523 69.0172C166.281 68.9101 166.114 68.6557 165.861 68.564C165.35 68.3788 164.874 68.6844 164.723 69.1763C164.697 69.2595 164.627 69.5608 164.627 69.6268V72.7583H163.279V67.3992L163.342 67.3361H164.606Z" fill="white"/>
<path d="M221.64 72.7584H220.291V67.3361H221.64V72.7584Z" fill="white"/>
<path d="M82.498 69.5845C82.498 69.8288 82.5456 70.0595 82.6396 70.2756C82.7335 70.4924 82.8622 70.6803 83.0252 70.8402C83.1874 71.0002 83.3787 71.1272 83.5993 71.2212C83.8185 71.3154 84.0563 71.3624 84.3136 71.3624C84.5773 71.3624 84.8149 71.3154 85.029 71.2212C85.242 71.1272 85.4234 71.0002 85.5737 70.8402C85.725 70.6803 85.8384 70.4924 85.9173 70.2756C85.9963 70.0595 86.035 69.8288 86.035 69.5845C86.035 69.3398 85.9963 69.1096 85.9173 68.8928C85.8384 68.6767 85.725 68.4888 85.5737 68.3289C85.4234 68.1689 85.242 68.0419 85.029 67.9479C84.8149 67.8537 84.5773 67.8067 84.3136 67.8067C84.0563 67.8067 83.8185 67.8537 83.5993 67.9479C83.3787 68.0419 83.1874 68.1689 83.0252 68.3289C82.8622 68.4888 82.7335 68.6767 82.6396 68.8928C82.5456 69.1096 82.498 69.3398 82.498 69.5845ZM81.9899 67.4119H82.5541V68.1736H82.5736C82.6611 68.0228 82.7713 67.8926 82.9022 67.783C83.034 67.6734 83.1767 67.5826 83.3302 67.5101C83.4847 67.4383 83.6456 67.3848 83.8154 67.3502C83.9838 67.3161 84.1503 67.2989 84.3136 67.2989C84.6465 67.2989 84.9512 67.3551 85.231 67.468C85.51 67.581 85.7509 67.7392 85.9552 67.943C86.1583 68.1468 86.3171 68.3882 86.4296 68.6671C86.5431 68.9463 86.5992 69.2521 86.5992 69.5845C86.5992 69.9168 86.5431 70.2228 86.4296 70.5015C86.3171 70.7809 86.1583 71.0219 85.9552 71.2257C85.7509 71.4299 85.51 71.5881 85.231 71.701C84.9512 71.8136 84.6465 71.8702 84.3136 71.8702C84.1503 71.8702 83.9838 71.8529 83.8154 71.8183C83.6456 71.7838 83.4847 71.7308 83.3302 71.6583C83.1767 71.5865 83.034 71.4957 82.9022 71.3856C82.7713 71.2758 82.6611 71.1456 82.5736 70.9955H82.5541V73.9019H81.9899V67.4119Z" fill="white"/>
<path d="M88.1792 69.5846C88.1792 69.8288 88.2181 70.0595 88.2971 70.2756C88.3759 70.4924 88.4893 70.6803 88.6407 70.8402C88.7908 71.0002 88.9725 71.1272 89.1863 71.2212C89.3993 71.3154 89.6371 71.3624 89.9009 71.3624C90.1644 71.3624 90.4022 71.3154 90.6163 71.2212C90.829 71.1272 91.0107 71.0002 91.1608 70.8402C91.3122 70.6803 91.4257 70.4924 91.5046 70.2756C91.5834 70.0595 91.6223 69.8288 91.6223 69.5846C91.6223 69.3398 91.5834 69.1096 91.5046 68.8929C91.4257 68.6767 91.3122 68.4888 91.1608 68.3289C91.0107 68.1689 90.829 68.0419 90.6163 67.9479C90.4022 67.8537 90.1644 67.8067 89.9009 67.8067C89.6371 67.8067 89.3993 67.8537 89.1863 67.9479C88.9725 68.0419 88.7908 68.1689 88.6407 68.3289C88.4893 68.4888 88.3759 68.6767 88.2971 68.8929C88.2181 69.1096 88.1792 69.3398 88.1792 69.5846ZM87.615 69.5846C87.615 69.2521 87.6712 68.9463 87.7848 68.6671C87.8971 68.3882 88.0539 68.1468 88.2548 67.943C88.4559 67.7392 88.6969 67.581 88.979 67.4681C89.2611 67.3551 89.568 67.2989 89.9009 67.2989C90.2335 67.2989 90.5384 67.3551 90.8183 67.4681C91.097 67.581 91.3382 67.7392 91.5424 67.943C91.7456 68.1468 91.9044 68.3882 92.0167 68.6671C92.1303 68.9463 92.1865 69.2521 92.1865 69.5846C92.1865 69.9168 92.1303 70.2228 92.0167 70.5015C91.9044 70.7809 91.7456 71.0219 91.5424 71.2257C91.3382 71.4299 91.097 71.5881 90.8183 71.7011C90.5384 71.8136 90.2335 71.8702 89.9009 71.8702C89.568 71.8702 89.2611 71.8136 88.979 71.7011C88.6969 71.5881 88.4559 71.4299 88.2548 71.2257C88.0539 71.0219 87.8971 70.7809 87.7848 70.5015C87.6712 70.2228 87.615 69.9168 87.615 69.5846Z" fill="white"/>
<path d="M92.8359 67.4118H93.4563L94.5099 71.0515H94.5283L95.7419 67.4118H96.2779L97.5674 71.0515H97.5857L98.6112 67.4118H99.1754L97.8958 71.7573H97.3132L96.0153 68.2017H95.9958L94.7822 71.7573H94.1999L92.8359 67.4118Z" fill="white"/>
<path d="M103.474 69.2176C103.474 69.023 103.435 68.8416 103.356 68.6718C103.279 68.5027 103.172 68.3537 103.037 68.2251C102.903 68.0969 102.743 67.9949 102.558 67.9197C102.372 67.8441 102.176 67.8067 101.97 67.8067C101.662 67.8067 101.407 67.8694 101.203 67.9949C100.999 68.1201 100.838 68.2644 100.719 68.4277C100.6 68.5904 100.514 68.7485 100.465 68.9027C100.414 69.0561 100.389 69.1608 100.389 69.2176H103.474ZM103.908 70.9393C103.687 71.2715 103.416 71.5098 103.094 71.654C102.771 71.7979 102.414 71.8701 102.026 71.8701C101.693 71.8701 101.393 71.8135 101.123 71.701C100.854 71.5881 100.621 71.4299 100.427 71.2256C100.232 71.0218 100.083 70.7809 99.9805 70.5015C99.8767 70.2228 99.8248 69.9136 99.8248 69.5749C99.8248 69.249 99.8778 68.9481 99.9847 68.6718C100.092 68.3964 100.242 68.1564 100.436 67.9521C100.631 67.7483 100.859 67.5891 101.123 67.4729C101.387 67.3566 101.678 67.2989 101.998 67.2989C102.33 67.2989 102.623 67.3566 102.877 67.4729C103.131 67.5891 103.345 67.7425 103.516 67.9338C103.689 68.1251 103.819 68.3427 103.908 68.5877C103.995 68.8317 104.039 69.0798 104.039 69.3306V69.7257H100.389C100.389 69.8445 100.413 69.9968 100.46 70.1816C100.507 70.3671 100.593 70.5469 100.719 70.7225C100.844 70.8981 101.011 71.0489 101.222 71.1742C101.432 71.2997 101.703 71.3623 102.035 71.3623C102.323 71.3623 102.603 71.2932 102.872 71.1554C103.143 71.0176 103.349 70.8295 103.494 70.5908L103.908 70.9393Z" fill="white"/>
<path d="M105.299 68.6346C105.299 68.553 105.295 68.4541 105.29 68.338C105.283 68.2223 105.278 68.1044 105.276 67.9852C105.273 67.8662 105.267 67.755 105.262 67.6512C105.255 67.5481 105.252 67.468 105.252 67.4118H105.816C105.823 67.5745 105.827 67.7311 105.83 67.8818C105.833 68.0322 105.841 68.1295 105.854 68.1738C105.998 67.9165 106.183 67.7062 106.408 67.5431C106.634 67.3805 106.911 67.2989 107.236 67.2989C107.294 67.2989 107.348 67.3031 107.402 67.313C107.455 67.3221 107.51 67.3335 107.566 67.3458L107.5 67.9009C107.424 67.8754 107.353 67.863 107.284 67.863C107.04 67.863 106.828 67.9024 106.648 67.9807C106.47 68.0592 106.323 68.1673 106.206 68.3051C106.091 68.4433 106.004 68.6049 105.948 68.7896C105.892 68.9744 105.864 69.174 105.864 69.3867V71.7574H105.299V68.6346Z" fill="white"/>
<path d="M111.667 69.2176C111.667 69.023 111.628 68.8416 111.549 68.6718C111.472 68.5027 111.365 68.3537 111.23 68.2251C111.095 68.0969 110.935 67.9949 110.751 67.9197C110.565 67.8441 110.369 67.8067 110.163 67.8067C109.855 67.8067 109.6 67.8694 109.396 67.9949C109.192 68.1201 109.03 68.2644 108.911 68.4277C108.793 68.5904 108.707 68.7485 108.657 68.9027C108.607 69.0561 108.582 69.1608 108.582 69.2176H111.667ZM112.101 70.9393C111.88 71.2715 111.609 71.5098 111.287 71.654C110.964 71.7979 110.607 71.8701 110.219 71.8701C109.886 71.8701 109.586 71.8135 109.316 71.701C109.046 71.5881 108.814 71.4299 108.62 71.2256C108.425 71.0218 108.276 70.7809 108.173 70.5015C108.07 70.2228 108.018 69.9136 108.018 69.5749C108.018 69.249 108.071 68.9481 108.178 68.6718C108.284 68.3964 108.435 68.1564 108.629 67.9521C108.824 67.7483 109.052 67.5891 109.316 67.4729C109.579 67.3566 109.871 67.2989 110.191 67.2989C110.523 67.2989 110.816 67.3566 111.07 67.4729C111.324 67.5891 111.537 67.7425 111.709 67.9338C111.882 68.1251 112.012 68.3427 112.101 68.5877C112.188 68.8317 112.231 69.0798 112.231 69.3306V69.7257H108.582C108.582 69.8445 108.606 69.9968 108.653 70.1816C108.699 70.3671 108.786 70.5469 108.911 70.7225C109.037 70.8981 109.204 71.0489 109.415 71.1742C109.625 71.2997 109.896 71.3623 110.228 71.3623C110.516 71.3623 110.796 71.2932 111.065 71.1554C111.335 71.0176 111.542 70.8295 111.687 70.5908L112.101 70.9393Z" fill="white"/>
<path d="M117.348 69.5846C117.348 69.3398 117.301 69.1096 117.207 68.8929C117.113 68.6767 116.984 68.4888 116.822 68.3289C116.659 68.1689 116.468 68.0419 116.248 67.9479C116.028 67.8537 115.79 67.8067 115.533 67.8067C115.269 67.8067 115.032 67.8537 114.819 67.9479C114.604 68.0419 114.423 68.1689 114.273 68.3289C114.121 68.4888 114.008 68.6767 113.929 68.8929C113.85 69.1096 113.811 69.3398 113.811 69.5846C113.811 69.8288 113.85 70.0595 113.929 70.2756C114.008 70.4924 114.121 70.6803 114.273 70.8402C114.423 71.0002 114.604 71.1272 114.819 71.2212C115.032 71.3154 115.269 71.3624 115.533 71.3624C115.79 71.3624 116.028 71.3154 116.248 71.2212C116.468 71.1272 116.659 71.0002 116.822 70.8402C116.984 70.6803 117.113 70.4924 117.207 70.2756C117.301 70.0595 117.348 69.8288 117.348 69.5846ZM117.292 70.9955H117.273C117.185 71.1456 117.076 71.2758 116.944 71.3856C116.812 71.4957 116.67 71.5865 116.516 71.6583C116.362 71.7308 116.201 71.7838 116.031 71.8183C115.863 71.853 115.696 71.8702 115.533 71.8702C115.2 71.8702 114.893 71.8136 114.611 71.7011C114.329 71.5881 114.088 71.4299 113.887 71.2257C113.686 71.0219 113.529 70.7809 113.417 70.5015C113.303 70.2228 113.247 69.9168 113.247 69.5846C113.247 69.2521 113.303 68.9463 113.417 68.6671C113.529 68.3882 113.686 68.1468 113.887 67.943C114.088 67.7392 114.329 67.581 114.611 67.4681C114.893 67.3551 115.2 67.2989 115.533 67.2989C115.696 67.2989 115.863 67.3162 116.031 67.3502C116.201 67.3848 116.362 67.4383 116.516 67.5101C116.67 67.5826 116.812 67.6734 116.944 67.783C117.076 67.8927 117.185 68.0229 117.273 68.1736H117.292V64.6462H117.856V71.7572H117.292V70.9955Z" fill="white"/>
<path d="M122.07 69.5846C122.07 69.8288 122.118 70.0595 122.212 70.2756C122.306 70.4924 122.434 70.6803 122.597 70.8402C122.759 71.0002 122.951 71.1272 123.171 71.2212C123.391 71.3154 123.628 71.3624 123.886 71.3624C124.149 71.3624 124.387 71.3154 124.601 71.2212C124.814 71.1272 124.995 71.0002 125.146 70.8402C125.297 70.6803 125.41 70.4924 125.489 70.2756C125.568 70.0595 125.607 69.8288 125.607 69.5846C125.607 69.3398 125.568 69.1096 125.489 68.8929C125.41 68.6767 125.297 68.4888 125.146 68.3289C124.995 68.1689 124.814 68.0419 124.601 67.9479C124.387 67.8537 124.149 67.8067 123.886 67.8067C123.628 67.8067 123.391 67.8537 123.171 67.9479C122.951 68.0419 122.759 68.1689 122.597 68.3289C122.434 68.4888 122.306 68.6767 122.212 68.8929C122.118 69.1096 122.07 69.3398 122.07 69.5846ZM121.562 64.6462H122.126V68.1736H122.146C122.233 68.0229 122.343 67.8927 122.474 67.783C122.606 67.6734 122.749 67.5826 122.902 67.5101C123.057 67.4383 123.218 67.3848 123.387 67.3502C123.556 67.3162 123.722 67.2989 123.886 67.2989C124.219 67.2989 124.523 67.3551 124.803 67.4681C125.082 67.581 125.323 67.7392 125.527 67.943C125.73 68.1468 125.889 68.3882 126.002 68.6671C126.115 68.9463 126.171 69.2521 126.171 69.5846C126.171 69.9168 126.115 70.2228 126.002 70.5015C125.889 70.7809 125.73 71.0219 125.527 71.2257C125.323 71.4299 125.082 71.5881 124.803 71.7011C124.523 71.8136 124.219 71.8702 123.886 71.8702C123.722 71.8702 123.556 71.853 123.387 71.8183C123.218 71.7838 123.057 71.7308 122.902 71.6583C122.749 71.5865 122.606 71.4957 122.474 71.3856C122.343 71.2758 122.233 71.1456 122.146 70.9955H122.126V71.7572H121.562V64.6462Z" fill="white"/>
<path d="M128.656 73.1023C128.549 73.3848 128.402 73.6069 128.214 73.77C128.026 73.9333 127.775 74.015 127.461 74.015C127.367 74.015 127.272 74.0067 127.178 73.991C127.084 73.9754 126.994 73.955 126.906 73.93L126.962 73.4031C127.043 73.4286 127.127 73.4519 127.212 73.4741C127.296 73.4955 127.383 73.5069 127.47 73.5069C127.571 73.5069 127.661 73.4848 127.738 73.4409C127.817 73.3973 127.884 73.3405 127.94 73.2718C127.998 73.2027 128.045 73.126 128.086 73.0412C128.127 72.9568 128.163 72.8705 128.194 72.7824L128.59 71.7763L126.822 67.4118H127.452L128.89 71.0705L130.292 67.4118H130.894L128.656 73.1023Z" fill="white"/>
<defs>
<linearGradient id="paint0_linear_1242_176" x1="148.689" y1="77.036" x2="148.689" y2="68.9971" gradientUnits="userSpaceOnUse">
<stop stop-color="#C8C8C8"/>
<stop offset="1" stop-color="white"/>
</linearGradient>
</defs>
</svg>
