<svg width="80" height="80" viewBox="0 0 80 80" fill="none" xmlns="http://www.w3.org/2000/svg">
<g clip-path="url(#clip0_243_28)">
<path d="M40.78 80L34.61 69.56C34.12 68.44 34.04 67.33 34.3 66.15H25.94C26.38 66.99 27.01 67.75 27.39 68.63C27.58 69.07 28.16 70.81 28.16 71.18V79.34H25.43V71.35C25.43 69.41 22.21 65.99 21.47 64.14C21.21 63.5 21.32 63.28 21.58 62.69C23.06 59.41 26.39 55.73 27.73 52.48C29.07 49.23 24.92 47.18 22.9 49.95L14.75 63.51L12.5 62.26L13.68 59.98C13.47 59.17 13.21 58.35 13.15 57.51C12.68 51.37 13.39 44.62 13.15 38.38C13.15 38.18 13.28 37.77 12.98 37.81C10.96 43.02 7.66998 47.78 6.32998 53.22V79.34H3.59998V53.05C3.59998 50.39 9.07998 39.52 10.62 36.59C11.27 35.35 11.74 34.16 13.16 33.57V8.71998C13.58 4.25998 17.29 0.599983 21.94 0.239983C31.22 -0.490017 41.52 0.769983 50.9 0.259983C55.47 0.729983 59 4.17998 59.51 8.57998L59.56 55.75C60.93 56.24 62.02 56.92 62.88 58.07C65.65 56.12 69.1 56.78 71.07 59.39C73.75 57.39 77.86 58.09 79.39 61.07C79.56 61.4 80.01 62.49 80.01 62.78V79.34H77.28V62.94C77.28 62.82 76.89 62.11 76.77 61.95C75.39 60.1 72.25 60.78 71.86 62.98C71.62 64.36 72.61 67.98 70.07 67.44C68.45 67.1 69.25 63.3 69.09 61.95C68.79 59.39 65.3 58.66 64 60.82C63.23 62.1 63.82 64.71 63.64 66.24C63.44 67.92 61.15 67.85 60.92 66.39C60.54 64.06 62.17 58.67 58.59 58.26C54.12 57.75 55.75 63.8 55.46 66.24C55.29 67.65 53.6 67.94 52.86 66.77L52.69 44.52C51.98 41.58 47.63 41.77 47.27 44.81L47.14 70.73C46.72 71.51 45.64 71.69 44.96 71.11C43.27 69.19 41.84 63.23 38.24 65.27C36.99 65.98 36.54 67.49 37.17 68.75L43.17 78.61L40.96 80.01H40.79L40.78 80ZM55.44 56.27C55.94 56.1 56.87 56 56.81 55.37V9.20998C56.56 5.78998 54.07 3.28998 50.57 2.87998H22.1C19.43 2.87998 15.87 5.99998 15.87 8.55998V56.27C16.08 56.26 16.15 56.04 16.24 55.89C17.7 53.66 20.29 48.01 22.36 46.81C26.53 44.38 31.39 47.68 30.62 52.32C30.26 54.51 26 60.35 24.7 62.75C24.57 62.99 24.36 63.22 24.39 63.52H36.07C36.14 63.52 36.93 62.88 37.3 62.73C38.72 62.14 40.03 62.06 41.49 62.56C42.61 62.95 43.13 63.84 44.51 63.51V44.15C44.51 43.94 45.04 42.77 45.19 42.5C47.16 38.94 52.65 38.86 54.66 42.42C54.89 42.84 55.42 43.9 55.42 44.32V56.27H55.44Z" fill="#00336A"/>
<path d="M6.33002 19.35V34.51H3.60002V19.35L1.83002 20.82L0.12002 19.36C-0.0599798 19.3 -0.0199798 19.11 0.0400202 18.96C0.14002 18.7 3.64002 15.32 4.02002 15.06C4.52002 14.72 4.87002 14.61 5.48002 14.8C5.78002 14.89 9.81002 18.67 9.89002 18.96C10.01 19.38 8.57002 20.6 8.12002 20.83L6.33002 19.34V19.35Z" fill="#0087CB"/>
<path d="M69.09 19.35V34.51H66.36V19.35L64.59 20.82L62.88 19.36C62.7 19.3 62.74 19.11 62.8 18.96C62.9 18.7 66.4 15.32 66.78 15.06C67.28 14.72 67.63 14.61 68.24 14.8C68.54 14.89 72.57 18.67 72.65 18.96C72.77 19.38 71.33 20.6 70.88 20.83L69.09 19.34V19.35Z" fill="#0087CB"/>
<path d="M6.32998 37.15H3.59998V39.79H6.32998V37.15Z" fill="#0087CB"/>
<path d="M69.09 37.15H66.36V39.79H69.09V37.15Z" fill="#0087CB"/>
<path d="M69.09 42.42H66.36V45.06H69.09V42.42Z" fill="#0087CB"/>
<path d="M34.95 16.1C45.93 15.07 53.61 26.33 48.25 35.71C43.58 43.9 31.58 44.69 25.61 37.39C18.98 29.29 24.36 17.1 34.95 16.1ZM35.12 18.74C21.25 20.1 22.91 40.85 37.28 39.78C51.45 38.73 49.93 17.28 35.12 18.74Z" fill="#0086CD"/>
<path d="M32.89 53.01C34.23 52.81 38.11 52.82 39.5 52.97C44.3 53.47 44.29 60.28 39.66 60.87C38.27 61.05 34.61 61.03 33.19 60.89C28.46 60.4 28.39 53.71 32.89 53.02V53.01ZM33.23 55.64C31.92 55.92 31.92 57.92 33.23 58.21C34 58.38 38.47 58.36 39.32 58.24C40.79 58.02 40.8 55.94 39.46 55.65C38.78 55.5 33.9 55.5 33.22 55.65L33.23 55.64Z" fill="#00336A"/>
<path d="M41.8 5.51001H30.89V8.15001H41.8V5.51001Z" fill="#00336A"/>
<path d="M28.16 5.51001H25.43V8.15001H28.16V5.51001Z" fill="#00336A"/>
<path d="M37.71 21.33V22.65C39.93 22.61 41.81 24.49 41.8 26.61H39.07C38.97 26.61 39.21 25.45 37.79 25.29C36.37 25.13 32.7 24.93 33.74 27.23C34.26 28.4 36.97 27.81 38.13 27.93C43.18 28.46 42.84 35.79 37.7 35.84V37.16H34.97V35.84C32.79 35.86 30.86 34.01 30.88 31.88H33.61C33.71 31.88 33.47 33.04 34.89 33.2C36.31 33.36 39.98 33.56 38.94 31.26C38.42 30.09 35.71 30.68 34.55 30.56C29.5 30.04 29.83 22.73 34.98 22.65V21.33H37.71Z" fill="#0086CD"/>
</g>
<defs>
<clipPath id="clip0_243_28">
<rect width="80" height="80" fill="white"/>
</clipPath>
</defs>
</svg>
