<svg width="80" height="80" viewBox="0 0 80 80" fill="none" xmlns="http://www.w3.org/2000/svg">
<g clip-path="url(#clip0_243_57)">
<g clip-path="url(#clip1_243_57)">
<path d="M80 37.44V42.43C78.35 70.65 46.98 89 21.69 75.45C20.01 74.55 18.15 73.58 19.21 71.31C20.69 68.16 23.93 70.74 25.91 71.57C55.27 83.93 84.5 54.91 71.7 25.86C70.6 23.37 69.14 21.61 67.87 19.37C67.06 17.94 67 16.22 68.56 15.29C71.21 13.71 72.83 17.01 74.01 18.9C77.39 24.3 79.62 31.11 80 37.45V37.44Z" fill="#00336A"/>
<path d="M24.69 0.0200195C27.67 1.18002 27.3 5.10002 23.95 5.35002C16.94 5.87002 9.24002 4.98002 2.16002 5.30002C-0.669975 4.55002 -0.659975 0.99002 2.03002 0.0200195H24.69Z" fill="#00336A"/>
<path d="M42.5099 0.0200372C48.4299 0.380037 56.0099 2.61004 60.9899 5.94004C61.3099 6.15004 61.8399 6.43004 62.0899 6.68004C63.8199 8.38004 62.4099 11.18 60.0899 11.18C58.9199 11.18 55.5099 8.92004 54.1199 8.31004C50.2399 6.61004 46.1399 5.72004 41.9299 5.35004C40.3399 5.21004 38.5799 5.77004 37.6499 3.97004C36.7899 2.31004 37.7199 0.650037 39.3499 0.0300372C40.3999 0.0800372 41.4699 -0.0299628 42.5199 0.0300372L42.5099 0.0200372Z" fill="#00336A"/>
<path d="M2.15005 37.31C3.66005 37.07 5.13005 37.97 5.34005 39.53C5.44005 40.27 5.29005 41.09 5.36005 41.84C5.97005 48.7 7.85005 54.14 11.65 59.84C12.84 61.62 15.35 63.56 13.19 65.8C11.03 68.04 8.82005 65.01 7.62005 63.36C3.24005 57.35 0.350047 49.49 0.0300472 42.01C-0.0499528 40.21 -0.169953 37.69 2.15005 37.31Z" fill="#00336A"/>
<path d="M2.15003 12.03L17.76 12C20.79 12.6 20.78 16.7 17.76 17.29H2.29003C-0.659972 16.72 -0.759972 12.75 2.15003 12.02V12.03Z" fill="#00336A"/>
<path d="M2.14996 24.01C3.60996 23.76 7.87996 23.82 9.44996 23.96C12.89 24.26 12.77 28.87 9.75996 29.27C8.18996 29.48 4.23996 29.44 2.59996 29.29C-0.800045 28.99 -0.710044 24.48 2.14996 24V24.01Z" fill="#00336A"/>
<path d="M26.15 49.6699L26.52 48.5499C26.94 47.25 28.06 46.73 29.37 47.15C30.58 47.52 32.5 48.08 35.16 48.08C38.47 48.08 40.39 46.0299 40.39 43.4199C40.39 38.4799 29.66 39.74 29.66 31.63C29.66 25.53 33.77 21.94 39.37 21.1L40.02 17.84C40.25 16.54 41.28 15.7 42.63 15.7H43.1C44.45 15.7 45.11 16.59 44.87 17.89L44.26 21.01C46.13 21.24 47.2 21.62 48.04 21.9C49.25 22.32 49.77 23.39 49.25 24.6L48.69 25.9C48.18 27.11 46.96 27.53 45.8 27.11C45.24 26.97 43.93 26.46 41.55 26.46C38.7 26.46 36.74 28.14 36.74 30.61C36.74 34.9 47.47 34.52 47.47 42.07C47.47 48.0799 43.5 52.32 37.62 53.3899L37.01 56.65C36.78 57.95 35.75 58.84 34.4 58.84H33.93C32.58 58.84 31.92 57.95 32.16 56.65L32.77 53.57C30.58 53.43 28.43 52.78 27.5 52.45C26.24 52.03 25.73 50.96 26.15 49.65V49.6699Z" fill="#0086CD"/>
</g>
</g>
<defs>
<clipPath id="clip0_243_57">
<rect width="80" height="80" fill="white"/>
</clipPath>
<clipPath id="clip1_243_57">
<rect width="80" height="80" fill="white"/>
</clipPath>
</defs>
</svg>
