<svg width="80" height="81" viewBox="0 0 80 81" fill="none" xmlns="http://www.w3.org/2000/svg">
<g clip-path="url(#clip0_243_45)">
<g clip-path="url(#clip1_243_45)">
<path d="M48.16 70.2874L51.45 76.7974C51.76 76.9774 55.12 76.7174 55.9 76.8274C57.99 77.1274 57.83 79.9174 55.75 80.0174L23.66 79.9374C22.07 79.2374 22.29 77.0874 24.09 76.8274C24.88 76.7174 28.24 76.9674 28.54 76.7974L31.83 70.2874H4.16C2.52 70.2874 0.05 67.8374 0 66.2674L0.11 3.56745C0.66 1.87745 2.09 0.597446 3.91 0.107446C28.03 0.0474456 52.23 -0.112554 76.33 0.187446C78.3 0.767446 79.82 2.43745 80 4.36745V65.9674C80.13 67.6374 77.54 70.2874 75.83 70.2874H48.16ZM76.56 57.3774V4.52745C76.56 3.92745 75.37 3.09745 74.69 3.22745H5.46C4.72 3.04745 3.43 3.86745 3.43 4.52745V57.3774H76.56ZM76.56 60.5674H3.43V65.8074C3.43 66.4074 4.62 67.2374 5.3 67.1074H74.53C75.27 67.2874 76.56 66.4675 76.56 65.8074V60.5674ZM47.5 76.8175L44.07 70.3574C43.74 70.1674 37.09 70.1875 36.3 70.2775C36.06 70.3074 35.87 70.2974 35.75 70.5275L32.47 76.8175H47.49H47.5Z" fill="#00336A"/>
<path d="M21.84 12.8674C34.61 12.2774 42.74 26.5874 35.62 37.2874C29.46 46.5574 15.59 46.5374 9.49 37.2174C2.84 27.0474 9.75 13.4274 21.83 12.8674H21.84ZM20.9 16.5774C10.75 17.7274 6.72 30.8474 14.45 37.6574C22.18 44.4674 33.25 39.8874 34.61 30.2974H25.22C23.65 30.2974 20.89 27.7074 20.89 26.1274V16.5674L20.9 16.5774ZM34.61 26.8774C34.02 21.6674 29.58 17.0674 24.33 16.5874V25.4974C24.33 25.9574 25.41 26.8874 25.88 26.8874H34.61V26.8774Z" fill="#0086CD"/>
<path d="M67.7 12.8574C68.31 12.7974 69.28 13.3574 69.47 13.9574L69.42 46.7674C68.58 48.1374 66.74 48.0474 66.19 46.4874L66.11 14.5274C66.19 13.6774 66.84 12.9274 67.7 12.8474V12.8574Z" fill="#0086CD"/>
<path d="M62.14 47.2475C60.98 48.4075 59.15 47.4775 59.09 45.9175V21.7275C59.31 19.2275 62.47 19.2375 62.68 21.7275L62.57 46.4575C62.45 46.7075 62.33 47.0575 62.14 47.2475Z" fill="#0086CD"/>
<path d="M53.67 25.2775C54.88 25.0975 55.57 26.0175 55.67 27.1175C56.23 33.1175 55.23 39.9875 55.67 46.0875C55.4 48.3175 52.43 48.2675 52.23 46.0875C51.67 39.9675 52.67 32.9975 52.23 26.7975C52.26 26.0975 52.97 25.3775 53.66 25.2775H53.67Z" fill="#00336A"/>
<path d="M46.6501 29.5274C47.8601 29.3274 48.5501 30.0474 48.6601 31.1974C49.1201 35.9874 48.3101 41.5274 48.6401 46.3974C47.9201 48.4074 45.4301 48.1274 45.2101 45.9274C44.7601 41.2874 45.5601 35.9274 45.2101 31.2174C45.2501 30.3874 45.8301 29.6674 46.6401 29.5374L46.6501 29.5274Z" fill="#00336A"/>
</g>
</g>
<defs>
<clipPath id="clip0_243_45">
<rect width="80" height="80" fill="white" transform="translate(0 0.0174561)"/>
</clipPath>
<clipPath id="clip1_243_45">
<rect width="80" height="80" fill="white" transform="translate(0 0.0174561)"/>
</clipPath>
</defs>
</svg>
