<svg width="80" height="80" viewBox="0 0 80 80" fill="none" xmlns="http://www.w3.org/2000/svg">
<g clip-path="url(#clip0_243_19)">
<g clip-path="url(#clip1_243_19)">
<path d="M41.08 0.0200022C41.9 0.130002 42.94 0.660002 43.58 1.19C48 6.29 54.18 10.89 58.42 16.03C61.67 19.96 58.42 25.38 53.35 24.69C52.85 24.62 52.12 24.12 51.7 24.31L46.85 29.16L78.25 60.55C83.63 67 75.42 75.12 69.03 69.93L37.56 38.46L32.71 43.31C32.52 43.73 33.02 44.45 33.09 44.96C33.78 50.02 28.57 53.14 24.51 50.1C20.11 45 13.89 40.39 9.67004 35.26C6.52004 31.43 9.65003 25.99 14.58 26.61C15.26 26.7 15.91 27.26 16.48 26.91L35.3 8.09C35.64 7.52 35.08 6.87 35 6.19C34.61 3.07 36.43 0.810002 39.36 0.0400022C39.91 0.0900023 40.55 -0.0299978 41.08 0.0400022V0.0200022ZM38.63 3.82C37.84 4.63 37.97 6.17 38.74 6.97C43.48 11.12 47.77 16.82 52.56 20.8C55.1 22.91 57.73 20.31 56.08 18.06L41.72 3.69C40.85 2.91 39.44 3.01 38.64 3.82H38.63ZM37.56 10.18L18.59 29.15L30.54 41.1L49.51 22.13L37.56 10.18ZM12.24 30.22C11.42 31.02 11.33 32.43 12.11 33.3L26.48 47.66C29.1 49.23 31.2 46.53 29.22 44.14C25.24 39.36 19.54 35.07 15.39 30.32C14.6 29.55 13.05 29.43 12.24 30.21V30.22ZM44.62 31.43L39.85 36.2L44.13 40.63L49.05 35.71L44.62 31.43ZM51.31 37.98L46.39 42.9L70.99 67.5C74.46 70.39 78.79 66.06 75.9 62.59L51.3 37.99L51.31 37.98Z" fill="#0086CD"/>
<path d="M0 66.87C0.42 65.57 1.12 64.36 2.36 63.69C2.58 63.57 3.67 63.13 3.83 63.13H6.88C6.93 61.28 6.63 59.52 7.37 57.76C8.21 55.77 10.26 54.45 12.42 54.37H46.95C49.78 54.46 52.17 56.65 52.47 59.47C52.59 60.65 52.42 61.93 52.49 63.12H55.54C57.26 63.12 59.15 65.48 59.35 67.12C59.78 70.64 59.06 74.91 59.37 78.51C59.28 79.27 58.89 79.75 58.16 79.95L1.65 79.99C0.82 79.99 0.4 79.54 0.02 78.89V66.86L0 66.87ZM49.36 63.12V59.45C49.36 59.31 48.69 58.28 48.5 58.12C48.19 57.86 47.5 57.54 47.1 57.49L11.87 57.57C11.24 57.65 10 58.9 10 59.45V63.12H23.04C23.04 63.12 23.73 63.5 23.81 63.6C24.61 64.45 24.16 65.98 23 66.21L4.45 66.24C4.04 66.13 3.13 66.97 3.13 67.26V76.87H56.24V67.26C56.24 66.97 55.33 66.13 54.92 66.24L36.37 66.21C35.21 65.98 34.77 64.45 35.56 63.6C35.65 63.51 36.29 63.12 36.33 63.12H49.37H49.36Z" fill="#00336A"/>
<path d="M29.32 63.16C31.55 62.73 31.91 66.01 29.89 66.25C27.87 66.49 27.48 63.52 29.32 63.16Z" fill="#00336A"/>
</g>
</g>
<defs>
<clipPath id="clip0_243_19">
<rect width="80" height="80" fill="white"/>
</clipPath>
<clipPath id="clip1_243_19">
<rect width="80" height="80" fill="white"/>
</clipPath>
</defs>
</svg>
