<svg width="80" height="80" viewBox="0 0 80 80" fill="none" xmlns="http://www.w3.org/2000/svg">
<g clip-path="url(#clip0_243_9)">
<path d="M0 55.9658C0.495356 54.1729 1.42415 52.8282 2.9515 51.8463C2.55934 51.3554 2.20846 50.6724 2.0227 50.0747C1.40351 48.1323 1.25903 40.9605 1.81631 39.0608C2.37358 37.1611 4.16925 35.8591 6.02683 35.667C7.55418 35.4963 11.7234 35.4749 13.1269 35.8591C14.7988 36.3287 16.3055 37.9722 16.5119 39.7865C16.7389 41.7076 16.7183 48.2177 16.2229 49.9253C16.0372 50.5443 15.7276 51.0992 15.4386 51.6756C18.4107 54.4077 20.3715 58.207 22.9928 61.2807H27.5955V55.5603C27.5955 53.7673 31.0836 50.9498 32.7348 50.6297C32.6522 49.8826 32.322 49.2423 32.2601 48.4738C32.0949 46.3607 32.033 41.8143 32.2601 39.7652C32.5077 37.5667 34.5098 35.9018 36.5738 35.667C38.8029 35.4322 43.5088 35.4322 45.7585 35.6457C46.5841 35.7311 47.1414 36.1366 47.2446 37.0117C47.0795 41.4941 47.6367 46.0619 46.7905 50.4589C48.5243 50.8004 52.2394 53.682 52.2394 55.5603V61.2807H56.8421C59.4634 58.1857 61.4242 54.4077 64.3963 51.6756C63.8803 50.6937 63.4262 49.6051 63.323 48.4738C63.1785 46.7663 63.1166 40.2561 63.5501 38.8901C63.9216 37.7801 64.8916 36.6702 65.903 36.1579C67.451 35.4109 73.7255 35.4109 75.3148 36.0512C76.3055 36.4568 77.3581 37.4813 77.7915 38.4845C78.5139 40.1494 78.4314 45.6563 78.2869 47.6627C78.1837 49.1142 77.7915 50.715 76.8834 51.8677C78.4314 52.8709 79.6491 54.429 79.8349 56.3927C80.0206 58.3565 80.0619 63.1804 79.8349 65.1014C79.6698 66.5315 78.1424 66.8303 77.5645 65.5069C77.1517 62.7108 77.8947 59.1249 77.4613 56.4354C77.2962 55.4749 76.2229 53.9381 75.2322 53.8954C74.9226 53.8954 73.6429 54.7278 73.1063 54.92C71.4551 55.4536 69.9897 55.4536 68.3385 54.92C66.6873 54.3863 66.2745 52.9989 64.7884 54.5571C62.6006 56.841 60.7843 60.683 58.6171 63.0309C58.1424 63.5432 58.0392 63.6926 57.2962 63.778C54.7575 64.0128 51.4551 63.3938 49.0403 63.778C46.8524 64.1195 46.7492 67.5347 48.9164 68.0896H59.7523C60.227 67.9402 60.5573 67.6841 60.8875 67.3212C62.7657 65.3575 64.2931 62.1345 66.192 60.064C67.1827 59.1889 68.4623 60.1494 68.1115 61.4087L63.9422 67.0864V77.6521H77.5026V70.3095C77.5026 69.477 79.5872 68.9007 79.8349 70.4803C80.0413 71.8036 80.0413 77.6948 79.8349 79.0181C79.7523 79.5731 79.3602 79.9786 78.8235 80.064H1.32095C0.681115 80.1281 0.350877 79.7439 0 79.2743V70.2455C0.330237 69.1355 2.3323 69.3917 2.3323 70.3308V77.6734H15.8927V67.1078L11.7234 61.4301C11.4345 59.9787 12.7141 59.1889 13.8081 60.2561C15.5831 62.0064 17.1517 65.4856 18.9474 67.3639C19.2776 67.7268 19.6078 67.9829 20.0826 68.1323H30.9185C33.0857 67.5774 32.9618 64.1836 30.7946 63.8207C28.3798 63.4365 25.0774 64.0555 22.5387 63.8207C21.7957 63.7567 21.7131 63.6073 21.2178 63.0736C19.0506 60.7257 17.2343 56.905 15.0464 54.5998C13.5604 53.0416 13.1682 54.3863 11.6202 54.9413C9.9484 55.5176 8.42105 55.5389 6.72859 54.984C5.86171 54.7065 5.01548 53.81 4.25181 54.0875C3.21981 54.4504 2.45614 55.6884 2.3323 56.7769C2.0227 59.5304 2.62126 62.7748 2.27038 65.571C1.73375 66.7663 0.598555 66.6169 0 65.571V56.0512L0 55.9658ZM3.90093 40.4055C3.65325 42.2839 4.08669 44.7385 3.90093 46.7022C6.46027 47.8335 8.50361 46.6595 9.12281 43.8847C9.30857 43.095 9.22601 41.4087 9.96904 41.0672C10.9598 40.5976 11.6615 41.6862 12.5077 41.9851C13.1682 42.2198 14.097 42.54 14.1796 41.7076C14.386 40.0213 13.8906 38.3565 12.0537 38.079C10.9804 37.9296 6.91435 37.9082 5.90299 38.143C4.82972 38.3778 4.04541 39.2956 3.88029 40.4055H3.90093ZM44.9123 41.4514V38.3138L44.6852 38.079H36.5738C36.4293 38.079 35.5212 38.5912 35.356 38.7407C34.5511 39.4664 34.5924 40.4482 34.6336 41.4514H44.9329H44.9123ZM75.9546 46.6809V40.2348C75.9546 40.0213 75.3973 38.9754 75.1909 38.7833C74.902 38.5059 74.2209 38.1643 73.8287 38.1003C72.7348 37.9082 68.9164 37.9082 67.8019 38.079C65.7792 38.3778 65.4076 40.3202 65.7585 42.1131C67.1414 42.7962 68.71 40.5123 69.8865 41.0672C70.6502 41.4301 70.5676 43.1163 70.7327 43.8847C71.3519 46.6382 73.3953 47.8335 75.9546 46.7022V46.6809ZM44.9123 43.8634H34.613V48.6233C34.613 48.794 35.1909 50.0534 35.3354 50.3095C37.9567 54.8773 44.9123 52.6574 44.9123 47.8335V43.8847V43.8634ZM14.1796 44.5037C13.7461 44.952 11.4964 44.0555 11.3726 44.1836C11.001 47.7268 7.76058 50.2028 4.35501 49.349C5.09804 51.9744 8.0289 53.4258 10.5676 52.6147C14.2621 51.4621 14.4272 47.8975 14.1796 44.5037ZM68.4623 44.1836C68.3385 44.0555 66.0888 44.952 65.6553 44.5037C65.4283 47.8975 65.5728 51.4621 69.2673 52.6147C71.806 53.4045 74.7368 51.9744 75.4799 49.349C72.0743 50.2028 68.8339 47.7268 68.4623 44.1836ZM34.3034 68.047H45.5315C43.8597 64.8239 46.3571 60.8751 49.9071 61.2807C49.7833 59.7012 50.0516 57.9082 49.9071 56.35C49.7214 54.4504 47.0795 52.9562 45.4489 52.5507L44.0248 53.8314C41.5686 55.6243 38.2663 55.7737 35.7276 54.0875C35.356 53.8527 34.1383 52.572 33.9525 52.5934C32.5903 53.2337 30.1342 54.4717 29.9484 56.2006C29.7626 57.7588 30.0929 59.6798 29.9484 61.2807C33.4985 60.8965 35.9959 64.8239 34.324 68.047H34.3034ZM61.5893 70.4803H18.2456V77.5667H61.5893V70.4803Z" fill="#00336A"/>
<path d="M34.3034 0C37.1517 0.298826 40.5366 3.67129 40.5366 6.70224V9.6905H61.5067C63.1786 9.6905 65.8411 12.5507 65.8824 14.365C65.7792 18.6339 66.2539 23.2871 65.9649 27.5133C65.7792 30.1387 64.0041 32.0811 61.6099 32.7641C61.3622 34.0875 62.4974 40.0427 59.6491 38.5272L54.1383 32.9349C52.1362 32.6574 49.5563 33.2124 47.6368 32.8922C46.3571 32.6788 46.3571 30.6937 47.6368 30.5016C48.6481 30.3308 53.9938 30.3095 54.9433 30.5016C55.9959 30.6937 58.1631 33.8741 59.2363 34.5358V31.2273C59.2363 31.2273 59.7936 30.6083 59.8555 30.587C60.2271 30.4162 60.9288 30.4803 61.4448 30.2882C62.4768 29.9466 63.4262 28.7727 63.5707 27.6628C64.0867 23.778 63.2198 18.7833 63.5707 14.7919C63.5707 13.8314 62.0227 12.1238 61.1765 12.1238H40.516V21.5582C40.516 22.0704 40 23.6286 39.773 24.1622C38.452 27.0011 35.5418 28.4098 32.5697 28.3244C33.0444 29.3063 33.9319 30.2668 35.0258 30.4589C37.3788 30.8645 40.4747 30.2028 42.9102 30.5229C43.9216 31.0779 43.9629 32.3372 42.869 32.8282C38.6791 32.5934 33.0857 34.3863 30.6708 29.7759C30.4231 29.3063 30.2993 28.3031 29.8452 28.2177H14.2415L13.7668 28.3671C12.6109 29.2423 9.08154 33.81 7.98763 34.0235C7.43035 34.1302 6.95563 33.9808 6.68732 33.4472C6.23324 32.5507 6.68732 28.2817 6.50156 28.0683C3.1579 27.5987 0.825602 24.6318 0.577924 21.2166C0.288967 17.3746 0.288967 10.8431 0.577924 7.02241C0.866882 3.58591 3.50878 0.426894 6.85243 0H34.3034ZM8.89578 29.8399C10.1135 29.0502 12.033 26.0192 13.354 25.8271H33.7874C36.1816 25.635 37.9567 23.6286 38.2043 21.1953C38.5552 17.6948 38.4727 11.0779 38.225 7.492C38.0392 4.75987 36.5532 2.90288 33.9113 2.4333H7.55419C5.20125 2.58271 3.24046 4.41836 2.97215 6.873C2.47679 11.3554 3.30238 16.7556 2.97215 21.3447C3.1579 23.0523 4.31373 24.7812 5.86172 25.4429C6.58412 25.7417 8.87514 25.7204 8.87514 26.6809V29.8186L8.89578 29.8399Z" fill="#00336A"/>
<path d="M9.47369 12.9349L31.2694 12.8922C32.8793 12.8922 33.1063 15.1121 31.4345 15.3042H9.74201C8.3385 15.1761 8.1321 13.3831 9.47369 12.9136V12.9349Z" fill="#0086CD"/>
<path d="M32.2394 8.66591C32.033 8.87936 31.4345 9.05012 31.1249 9.05012H9.90713C8.09083 8.81533 8.29723 6.78758 9.59754 6.61682H31.5996C32.549 6.72354 32.8999 8.00423 32.2394 8.66591Z" fill="#0086CD"/>
<path d="M9.30856 19.381H20.805C22.064 19.5517 22.1465 21.5581 20.3509 21.7716C17.0691 22.1558 13.1063 21.4941 9.76264 21.7716C8.40041 21.5155 8.15273 20.1494 9.30856 19.4023V19.381Z" fill="#0086CD"/>
</g>
<defs>
<clipPath id="clip0_243_9">
<rect width="80" height="80" fill="white"/>
</clipPath>
</defs>
</svg>
